<svg xmlns="http://www.w3.org/2000/svg" width="411.042" height="97.752" viewBox="0 0 411.042 97.752">
  <g id="logo" data-name="Group 132" transform="translate(-190.92 -285.076)">
    <text id="pilhacheia" transform="translate(292.962 351.076)" fill="#fff" font-size="63" font-family="ArlonSemiBold-DEMO, Arlon" letter-spacing="0.02em"><tspan x="0" y="0">pilhacheia</tspan></text>
    <g id="Group_7" data-name="Group 7" transform="translate(190.92 297.04)">
      <g id="cube-of-notes-stack" transform="translate(0 0)">
        <g id="_x32__21_">
          <g id="Group_6" data-name="Group 6">
            <path id="Path_27" data-name="Path 27" d="M45.819,100.62,6.108,82.313c.137.083-3.514-1.566-6.108-3.05,0,2.214.556,6.271,2.62,7.365L28.364,98.2l13.134,5.9c3.436,1.621,4.917,1.621,8.64,0L89.014,86.629c1.921-.893,2.623-5.1,2.623-7.365-2.5,1.251-6.039,3.035-6.108,3.05Zm0-76.279c.286.335.212.069,0,0ZM2.62,68.321,41.5,85.8c3.436,1.621,4.917,1.621,8.64,0L89.014,68.321c1.921-.893,2.623-5.1,2.623-7.365-2.5,1.251-6.039,3.036-6.108,3.05L45.819,82.313,6.108,64.006c.137.083-3.514-1.567-6.108-3.05C0,63.169.556,67.227,2.62,68.321Zm0-18.307L41.5,67.491c3.436,1.621,4.917,1.621,8.64,0L89.014,50.014c2.864-1.334,2.958-7.01,0-8.631L50.137,20.856c-3.053-1.81-5.2-1.715-8.64,0L2.62,41.383C-.338,43.29-.432,48.393,2.62,50.014Zm43.2-25.673L85.529,45.7,45.819,62.433,6.108,45.7Z" transform="translate(0 -19.534)" fill="#fff"/>
          </g>
        </g>
      </g>
    </g>
  </g>
</svg>
